<mxfile host="65bd71144e">
    <diagram id="nPDUPxtUw3me7Vo2q9ww" name="第 1 页">
        <mxGraphModel dx="748" dy="576" grid="0" gridSize="10" guides="1" tooltips="1" connect="1" arrows="1" fold="1" page="1" pageScale="1" pageWidth="827" pageHeight="1169" math="0" shadow="0">
            <root>
                <mxCell id="0"/>
                <mxCell id="1" parent="0"/>
                <mxCell id="2" style="edgeStyle=none;html=1;exitX=0.5;exitY=1;exitDx=0;exitDy=0;entryX=0.5;entryY=0;entryDx=0;entryDy=0;" edge="1" parent="1" source="9" target="15">
                    <mxGeometry relative="1" as="geometry"/>
                </mxCell>
                <mxCell id="3" style="edgeStyle=none;html=1;exitX=0.5;exitY=1;exitDx=0;exitDy=0;entryX=0.5;entryY=0;entryDx=0;entryDy=0;" edge="1" parent="1" source="9" target="11">
                    <mxGeometry relative="1" as="geometry"/>
                </mxCell>
                <mxCell id="4" style="edgeStyle=none;html=1;exitX=0.5;exitY=1;exitDx=0;exitDy=0;entryX=0.5;entryY=0;entryDx=0;entryDy=0;" edge="1" parent="1" source="9" target="18">
                    <mxGeometry relative="1" as="geometry"/>
                </mxCell>
                <mxCell id="5" style="edgeStyle=none;html=1;exitX=0.5;exitY=1;exitDx=0;exitDy=0;entryX=0.5;entryY=0;entryDx=0;entryDy=0;" edge="1" parent="1" source="9" target="21">
                    <mxGeometry relative="1" as="geometry"/>
                </mxCell>
                <mxCell id="6" style="edgeStyle=none;html=1;exitX=0.5;exitY=1;exitDx=0;exitDy=0;entryX=0.5;entryY=0;entryDx=0;entryDy=0;" edge="1" parent="1" source="9" target="24">
                    <mxGeometry relative="1" as="geometry"/>
                </mxCell>
                <mxCell id="7" style="edgeStyle=none;html=1;exitX=0.5;exitY=1;exitDx=0;exitDy=0;entryX=0.5;entryY=0;entryDx=0;entryDy=0;" edge="1" parent="1" source="9" target="29">
                    <mxGeometry relative="1" as="geometry"/>
                </mxCell>
                <mxCell id="8" style="edgeStyle=none;html=1;exitX=0.5;exitY=1;exitDx=0;exitDy=0;entryX=0.5;entryY=0;entryDx=0;entryDy=0;" edge="1" parent="1" source="9" target="34">
                    <mxGeometry relative="1" as="geometry"/>
                </mxCell>
                <mxCell id="9" value="音乐推荐系统" style="whiteSpace=wrap;html=1;" vertex="1" parent="1">
                    <mxGeometry x="316.5" y="40" width="120" height="60" as="geometry"/>
                </mxCell>
                <mxCell id="10" value="" style="edgeStyle=none;html=1;" edge="1" parent="1" source="11" target="52">
                    <mxGeometry relative="1" as="geometry"/>
                </mxCell>
                <mxCell id="11" value="登陆注册" style="whiteSpace=wrap;html=1;verticalAlign=middle;horizontal=1;" vertex="1" parent="1">
                    <mxGeometry x="80" y="142" width="33" height="98" as="geometry"/>
                </mxCell>
                <mxCell id="12" value="" style="edgeStyle=none;html=1;entryX=0.5;entryY=0;entryDx=0;entryDy=0;" edge="1" parent="1" source="15" target="36">
                    <mxGeometry relative="1" as="geometry"/>
                </mxCell>
                <mxCell id="13" style="edgeStyle=none;html=1;exitX=1;exitY=1;exitDx=0;exitDy=0;entryX=0.5;entryY=0;entryDx=0;entryDy=0;" edge="1" parent="1" source="15" target="37">
                    <mxGeometry relative="1" as="geometry"/>
                </mxCell>
                <mxCell id="14" style="edgeStyle=none;html=1;exitX=0;exitY=1;exitDx=0;exitDy=0;entryX=0.5;entryY=0;entryDx=0;entryDy=0;" edge="1" parent="1" source="15" target="35">
                    <mxGeometry relative="1" as="geometry"/>
                </mxCell>
                <mxCell id="15" value="为你推荐" style="whiteSpace=wrap;html=1;verticalAlign=middle;horizontal=1;" vertex="1" parent="1">
                    <mxGeometry x="203" y="142" width="33" height="98" as="geometry"/>
                </mxCell>
                <mxCell id="16" style="edgeStyle=none;html=1;entryX=0.5;entryY=0;entryDx=0;entryDy=0;" edge="1" parent="1" source="18" target="38">
                    <mxGeometry relative="1" as="geometry"/>
                </mxCell>
                <mxCell id="17" style="edgeStyle=none;html=1;entryX=0.5;entryY=0;entryDx=0;entryDy=0;" edge="1" parent="1" source="18" target="39">
                    <mxGeometry relative="1" as="geometry"/>
                </mxCell>
                <mxCell id="18" value="歌单" style="whiteSpace=wrap;html=1;verticalAlign=middle;horizontal=1;" vertex="1" parent="1">
                    <mxGeometry x="314" y="142" width="33" height="98" as="geometry"/>
                </mxCell>
                <mxCell id="19" style="edgeStyle=none;html=1;entryX=0.5;entryY=0;entryDx=0;entryDy=0;" edge="1" parent="1" source="21" target="40">
                    <mxGeometry relative="1" as="geometry"/>
                </mxCell>
                <mxCell id="20" style="edgeStyle=none;html=1;entryX=0.5;entryY=0;entryDx=0;entryDy=0;" edge="1" parent="1" source="21" target="41">
                    <mxGeometry relative="1" as="geometry"/>
                </mxCell>
                <mxCell id="21" value="歌曲" style="whiteSpace=wrap;html=1;verticalAlign=middle;horizontal=1;" vertex="1" parent="1">
                    <mxGeometry x="360" y="142" width="33" height="98" as="geometry"/>
                </mxCell>
                <mxCell id="22" style="edgeStyle=none;html=1;entryX=0.5;entryY=0;entryDx=0;entryDy=0;" edge="1" parent="1" source="24" target="42">
                    <mxGeometry relative="1" as="geometry"/>
                </mxCell>
                <mxCell id="23" style="edgeStyle=none;html=1;entryX=0.5;entryY=0;entryDx=0;entryDy=0;" edge="1" parent="1" source="24" target="43">
                    <mxGeometry relative="1" as="geometry"/>
                </mxCell>
                <mxCell id="24" value="歌手" style="whiteSpace=wrap;html=1;verticalAlign=middle;horizontal=1;" vertex="1" parent="1">
                    <mxGeometry x="406" y="142" width="33" height="98" as="geometry"/>
                </mxCell>
                <mxCell id="25" style="edgeStyle=none;html=1;exitX=0;exitY=1;exitDx=0;exitDy=0;entryX=0.5;entryY=0;entryDx=0;entryDy=0;" edge="1" parent="1" source="29" target="44">
                    <mxGeometry relative="1" as="geometry"/>
                </mxCell>
                <mxCell id="26" style="edgeStyle=none;html=1;exitX=0.25;exitY=1;exitDx=0;exitDy=0;entryX=0.5;entryY=0;entryDx=0;entryDy=0;" edge="1" parent="1" source="29" target="45">
                    <mxGeometry relative="1" as="geometry"/>
                </mxCell>
                <mxCell id="27" style="edgeStyle=none;html=1;exitX=0.5;exitY=1;exitDx=0;exitDy=0;entryX=0.5;entryY=0;entryDx=0;entryDy=0;" edge="1" parent="1" source="29" target="46">
                    <mxGeometry relative="1" as="geometry"/>
                </mxCell>
                <mxCell id="28" style="edgeStyle=none;html=1;exitX=0.75;exitY=1;exitDx=0;exitDy=0;entryX=0.5;entryY=0;entryDx=0;entryDy=0;" edge="1" parent="1" source="29" target="47">
                    <mxGeometry relative="1" as="geometry"/>
                </mxCell>
                <mxCell id="29" value="排行榜" style="whiteSpace=wrap;html=1;verticalAlign=middle;horizontal=1;" vertex="1" parent="1">
                    <mxGeometry x="527" y="142" width="33" height="98" as="geometry"/>
                </mxCell>
                <mxCell id="30" style="edgeStyle=none;html=1;exitX=0;exitY=1;exitDx=0;exitDy=0;entryX=0.5;entryY=0;entryDx=0;entryDy=0;" edge="1" parent="1" source="34" target="48">
                    <mxGeometry relative="1" as="geometry"/>
                </mxCell>
                <mxCell id="31" style="edgeStyle=none;html=1;exitX=0.5;exitY=1;exitDx=0;exitDy=0;entryX=0.5;entryY=0;entryDx=0;entryDy=0;" edge="1" parent="1" source="34" target="49">
                    <mxGeometry relative="1" as="geometry"/>
                </mxCell>
                <mxCell id="32" style="edgeStyle=none;html=1;exitX=0.75;exitY=1;exitDx=0;exitDy=0;entryX=0.5;entryY=0;entryDx=0;entryDy=0;" edge="1" parent="1" source="34" target="50">
                    <mxGeometry relative="1" as="geometry"/>
                </mxCell>
                <mxCell id="33" style="edgeStyle=none;html=1;exitX=1;exitY=1;exitDx=0;exitDy=0;entryX=0.5;entryY=0;entryDx=0;entryDy=0;" edge="1" parent="1" source="34" target="51">
                    <mxGeometry relative="1" as="geometry"/>
                </mxCell>
                <mxCell id="34" value="后台管理" style="whiteSpace=wrap;html=1;verticalAlign=middle;horizontal=1;" vertex="1" parent="1">
                    <mxGeometry x="699" y="142" width="33" height="98" as="geometry"/>
                </mxCell>
                <mxCell id="35" value="歌单" style="whiteSpace=wrap;html=1;verticalAlign=middle;horizontal=1;" vertex="1" parent="1">
                    <mxGeometry x="156" y="266" width="33" height="98" as="geometry"/>
                </mxCell>
                <mxCell id="36" value="歌曲" style="whiteSpace=wrap;html=1;verticalAlign=middle;horizontal=1;" vertex="1" parent="1">
                    <mxGeometry x="202" y="266" width="33" height="98" as="geometry"/>
                </mxCell>
                <mxCell id="37" value="歌手" style="whiteSpace=wrap;html=1;verticalAlign=middle;horizontal=1;" vertex="1" parent="1">
                    <mxGeometry x="248" y="266" width="33" height="98" as="geometry"/>
                </mxCell>
                <mxCell id="38" value="歌单推荐" style="whiteSpace=wrap;html=1;verticalAlign=middle;horizontal=1;" vertex="1" parent="1">
                    <mxGeometry x="311.5" y="266" width="16" height="98" as="geometry"/>
                </mxCell>
                <mxCell id="39" value="相似推荐" style="whiteSpace=wrap;html=1;verticalAlign=middle;horizontal=1;" vertex="1" parent="1">
                    <mxGeometry x="333.5" y="266" width="16" height="98" as="geometry"/>
                </mxCell>
                <mxCell id="40" value="歌曲推荐" style="whiteSpace=wrap;html=1;verticalAlign=middle;horizontal=1;" vertex="1" parent="1">
                    <mxGeometry x="357.5" y="266" width="16" height="98" as="geometry"/>
                </mxCell>
                <mxCell id="41" value="相似推荐" style="whiteSpace=wrap;html=1;verticalAlign=middle;horizontal=1;" vertex="1" parent="1">
                    <mxGeometry x="379.5" y="266" width="16" height="98" as="geometry"/>
                </mxCell>
                <mxCell id="42" value="歌手推荐" style="whiteSpace=wrap;html=1;verticalAlign=middle;horizontal=1;" vertex="1" parent="1">
                    <mxGeometry x="403.5" y="266" width="16" height="98" as="geometry"/>
                </mxCell>
                <mxCell id="43" value="相似推荐" style="whiteSpace=wrap;html=1;verticalAlign=middle;horizontal=1;" vertex="1" parent="1">
                    <mxGeometry x="425.5" y="266" width="16" height="98" as="geometry"/>
                </mxCell>
                <mxCell id="44" value="总榜排行" style="whiteSpace=wrap;html=1;verticalAlign=middle;horizontal=1;" vertex="1" parent="1">
                    <mxGeometry x="467" y="266" width="33" height="98" as="geometry"/>
                </mxCell>
                <mxCell id="45" value="歌单排行" style="whiteSpace=wrap;html=1;verticalAlign=middle;horizontal=1;" vertex="1" parent="1">
                    <mxGeometry x="507" y="266" width="33" height="98" as="geometry"/>
                </mxCell>
                <mxCell id="46" value="歌曲排行" style="whiteSpace=wrap;html=1;verticalAlign=middle;horizontal=1;" vertex="1" parent="1">
                    <mxGeometry x="546" y="266" width="33" height="98" as="geometry"/>
                </mxCell>
                <mxCell id="47" value="歌手排行" style="whiteSpace=wrap;html=1;verticalAlign=middle;horizontal=1;" vertex="1" parent="1">
                    <mxGeometry x="585" y="266" width="33" height="98" as="geometry"/>
                </mxCell>
                <mxCell id="48" value="歌单管理" style="whiteSpace=wrap;html=1;verticalAlign=middle;horizontal=1;" vertex="1" parent="1">
                    <mxGeometry x="638" y="266" width="33" height="98" as="geometry"/>
                </mxCell>
                <mxCell id="49" value="歌手管理" style="whiteSpace=wrap;html=1;verticalAlign=middle;horizontal=1;" vertex="1" parent="1">
                    <mxGeometry x="681" y="266" width="33" height="98" as="geometry"/>
                </mxCell>
                <mxCell id="50" value="歌曲管理" style="whiteSpace=wrap;html=1;verticalAlign=middle;horizontal=1;" vertex="1" parent="1">
                    <mxGeometry x="724" y="266" width="33" height="98" as="geometry"/>
                </mxCell>
                <mxCell id="51" value="用户管理" style="whiteSpace=wrap;html=1;verticalAlign=middle;horizontal=1;" vertex="1" parent="1">
                    <mxGeometry x="767" y="266" width="33" height="98" as="geometry"/>
                </mxCell>
                <mxCell id="52" value="用户标签" style="whiteSpace=wrap;html=1;" vertex="1" parent="1">
                    <mxGeometry x="85" y="264" width="23" height="102" as="geometry"/>
                </mxCell>
            </root>
        </mxGraphModel>
    </diagram>
</mxfile>